<?xml version="1.0" encoding="UTF-8" standalone="no"?>
<!DOCTYPE svg PUBLIC "-//W3C//DTD SVG 1.1//EN" "http://www.w3.org/Graphics/SVG/1.1/DTD/svg11.dtd">
<svg xmlns="http://www.w3.org/2000/svg" version="1.1" viewBox="0 0 684 156" width="684" height="156" class="prs-logo" shape-rendering="geometricPrecision" text-rendering="geometricPrecision">
<!-- First P with proper cutout using compound path -->
<path d="M 35.92 25.85 C 66.94 25.86 98.00 25.82 129.01 25.86 C 135.31 26.07 143.20 27.43 147.55 32.44 C 151.66 36.96 151.72 43.20 150.91 48.92 C 149.83 54.99 148.50 61.01 147.34 67.06 C 145.71 75.38 144.53 83.01 138.22 89.26 C 131.14 95.97 122.33 96.57 113.07 96.98 C 93.18 97.03 73.27 96.98 53.38 97.00 C 50.64 110.32 48.12 123.70 45.31 137.00 C 34.75 136.99 24.20 137.02 13.65 136.99 C 21.14 99.96 28.43 62.88 35.92 25.85 Z M 62.38 52.00 C 81.17 52.07 99.98 51.85 118.77 52.12 C 118.23 57.32 117.20 62.84 115.74 67.88 C 114.74 70.89 111.65 70.72 109.04 70.84 C 92.25 70.87 75.44 70.82 58.65 70.86 C 59.64 65.48 60.74 60.11 61.83 54.74 C 62.01 53.83 62.20 52.92 62.38 52.00 Z" fill="currentColor" fill-rule="evenodd" />
<!-- R with proper cutout using compound path -->
<path d="M 184.92 25.85 C 215.94 25.86 247.00 25.82 278.01 25.86 C 284.61 26.10 292.67 27.49 297.03 32.98 C 300.84 37.61 300.70 44.14 299.78 49.73 C 298.08 58.35 296.40 66.98 294.59 75.58 C 292.90 82.98 289.26 89.66 282.55 93.58 C 275.34 97.70 268.05 97.60 260.01 98.10 C 273.27 111.09 286.66 123.95 299.86 137.00 C 284.56 137.01 269.25 136.99 253.95 137.01 C 242.65 124.03 231.37 111.02 220.13 98.00 C 214.16 98.00 208.19 98.00 202.22 98.00 C 199.42 110.96 197.09 124.03 194.31 137.00 C 183.75 136.99 173.20 137.02 162.65 136.99 C 170.14 99.96 177.43 62.88 184.92 25.85 Z M 211.38 52.00 C 230.18 52.07 248.99 51.85 267.79 52.12 C 267.20 57.54 266.00 63.53 264.59 68.82 C 263.73 71.80 260.57 71.72 258.04 71.84 C 241.15 71.87 224.24 71.83 207.35 71.85 C 208.59 66.16 209.65 60.44 210.83 54.74 C 211.01 53.83 211.20 52.91 211.38 52.00 Z" fill="currentColor" fill-rule="evenodd" />
<!-- S -->
<path d="M 372.00 25.88 C 391.99 25.80 412.00 25.88 432.00 25.84 C 437.79 25.76 444.03 26.29 449.46 28.42 C 453.46 29.99 456.71 32.97 458.00 37.15 C 460.39 44.09 458.54 51.11 457.14 58.04 C 446.93 60.42 436.68 62.65 426.49 65.11 C 427.35 60.75 428.27 56.40 429.07 52.03 C 409.23 51.96 389.39 52.02 369.55 52.00 C 368.74 56.63 367.70 61.20 366.91 65.82 C 383.94 65.88 400.97 65.83 418.00 65.85 C 424.47 65.90 430.67 65.46 437.07 66.76 C 441.56 67.51 447.02 69.36 449.64 73.34 C 453.10 78.36 452.57 85.04 451.90 90.79 C 450.58 97.97 449.17 105.20 447.55 112.32 C 445.73 119.58 442.47 127.80 435.86 131.97 C 428.71 136.45 420.24 136.54 412.07 136.98 C 393.72 137.04 375.35 136.97 357.00 137.01 C 351.08 137.08 345.11 136.77 339.25 135.92 C 333.82 134.83 328.14 132.69 325.79 127.22 C 322.20 118.75 324.88 110.26 326.37 101.63 C 336.62 99.26 346.89 96.99 357.14 94.60 C 355.98 99.65 355.06 104.75 354.01 109.81 C 375.62 109.89 397.23 109.82 418.84 109.85 C 420.08 104.27 421.19 98.64 422.21 93.01 C 403.47 92.98 384.73 93.01 365.99 93.00 C 361.31 92.90 356.55 92.62 351.91 91.94 C 346.51 90.85 340.97 88.84 338.55 83.45 C 335.21 75.79 337.49 67.67 338.96 59.88 C 340.76 50.93 342.42 40.79 348.86 33.85 C 354.50 27.61 364.04 26.26 372.00 25.88 Z" fill="currentColor" />
<!-- ICELAND letters -->
<path d="M 465.79 108.97 C 468.32 108.97 470.85 108.97 473.38 108.97 C 473.38 118.31 473.38 127.66 473.38 137.00 C 470.85 137.00 468.32 137.00 465.79 137.00 C 465.79 127.66 465.79 118.31 465.79 108.97 Z" fill="currentColor" />
<path d="M 498.00 113.95 C 500.67 113.99 504.30 113.76 506.62 115.30 C 508.77 116.96 508.11 120.52 508.34 122.95 C 506.06 123.24 503.78 123.56 501.50 123.93 C 501.52 122.62 501.53 121.31 501.55 120.01 C 497.43 120.00 493.32 120.00 489.21 120.00 C 489.21 123.66 489.21 127.31 489.21 130.97 C 493.32 130.97 497.43 130.97 501.54 130.97 C 501.53 129.27 501.53 127.57 501.52 125.87 C 503.79 126.45 506.08 126.97 508.36 127.51 C 508.14 129.69 508.61 132.51 507.58 134.49 C 506.38 136.77 503.25 136.70 501.03 136.96 C 496.71 137.03 492.33 137.17 488.02 136.81 C 485.91 136.46 483.81 136.40 482.88 134.14 C 482.25 130.85 482.53 127.34 482.46 124.00 C 482.59 120.71 482.01 117.77 484.02 114.92 C 488.75 113.52 493.14 114.06 498.00 113.95 Z" fill="currentColor" />
<path d="M 514.86 113.97 C 522.99 113.97 531.11 113.97 539.23 113.97 C 539.23 115.98 539.24 117.99 539.24 120.00 C 533.43 120.00 527.63 120.00 521.82 120.00 L 521.81 121.97 C 525.23 121.97 528.65 121.97 532.07 121.97 C 532.07 123.98 532.07 125.99 532.07 128.00 C 528.65 128.00 525.24 128.00 521.82 128.00 C 521.82 128.99 521.82 129.98 521.81 130.97 C 527.69 130.97 533.56 130.97 539.43 130.97 C 539.43 132.98 539.44 134.99 539.44 137.00 C 531.25 137.00 523.05 137.00 514.86 137.00 C 514.86 129.32 514.86 121.65 514.86 113.97 Z" fill="currentColor" />
<path d="M 544.86 113.97 C 547.18 113.97 549.50 113.97 551.82 113.97 C 551.82 119.64 551.82 125.30 551.82 130.97 C 557.31 130.97 562.80 130.97 568.29 130.97 C 568.30 132.98 568.31 134.99 568.34 137.00 C 560.51 137.00 552.69 137.00 544.86 137.00 C 544.86 129.32 544.86 121.65 544.86 113.97 Z" fill="currentColor" />
<!-- A with proper cutout using compound path -->
<path d="M 582.93 114.05 C 584.63 113.96 586.87 113.64 588.45 114.33 C 593.28 121.73 597.64 129.52 602.38 137.00 C 599.84 137.00 597.30 137.00 594.76 137.01 C 593.85 135.69 592.96 134.36 592.07 133.02 C 587.60 133.12 582.97 132.68 578.54 133.24 C 577.58 134.41 576.76 135.73 575.92 137.00 C 573.60 137.00 571.29 136.99 568.97 136.97 C 573.69 129.41 577.91 121.38 582.93 114.05 Z M 585.28 120.87 C 586.57 122.81 587.66 124.95 588.78 126.99 C 586.51 126.98 584.24 126.96 581.97 126.94 C 583.04 124.88 584.07 122.84 585.28 120.87 Z" fill="currentColor" fill-rule="evenodd" />
<path d="M 604.86 113.85 C 607.05 114.10 609.12 113.59 610.85 115.13 C 616.05 119.15 621.19 123.25 626.43 127.22 C 626.51 122.80 626.49 118.39 626.49 113.97 C 628.56 113.97 630.63 113.97 632.70 113.97 C 632.70 121.65 632.70 129.32 632.70 137.00 C 631.23 137.00 629.76 137.00 628.30 137.00 C 622.65 132.54 617.08 127.96 611.31 123.67 C 611.21 128.12 611.25 132.55 611.25 137.00 C 609.12 137.00 606.99 137.00 604.86 137.00 C 604.86 129.28 604.86 121.57 604.86 113.85 Z" fill="currentColor" />
<!-- D with proper cutout using compound path -->
<path d="M 640.86 113.97 C 647.20 114.18 653.80 113.43 660.04 114.56 C 664.19 115.30 667.92 117.68 669.06 121.94 C 669.66 125.13 669.65 128.99 667.76 131.77 C 666.22 134.16 663.28 135.57 660.59 136.15 C 653.97 137.42 647.67 136.91 640.86 137.00 C 640.86 129.32 640.86 121.65 640.86 113.97 Z M 647.82 120.01 C 651.71 120.09 655.77 119.69 659.60 120.34 C 663.98 121.69 663.48 129.84 658.80 130.62 C 655.22 131.20 651.45 130.92 647.82 130.97 C 647.82 127.32 647.82 123.66 647.82 120.01 Z" fill="currentColor" fill-rule="evenodd" />
</svg>